:SAMPLES-PER-SECOND 24
:FULLY-SPECIFIED
:DEGREES
324
root  3.86606 38.4019 24.8674 168.34 -7.13428 -176.106
RightUpLeg  10.7722 -18.6686 -21.4585
RightLeg  52.2082 2.02225 2.43351
RightFoot  17.4844 -2.024 8.33856
RightToes  -1.74623e-010 0 -2.59999e-017
Spine  0.888871 2.75822 -0.223667
Spine1  16.3794 1.9225 -1.92301
HEad  3.65107 10.6442 -4.54026
LeftShoulder1  2.1017 -3.67169 -23.016
LeftArm  27.0797 -2.02144 -49.7741
LeftForeArm  42.7815 -72.5167 -32.6531
LeftHand  -0.313553 2.6032 12.8007
RightShoulder  3.31165 5.7188 30.0007
RightArm  6.02356 -14.1149 39.686
RightForeArm  166.111 68.8761 154.354
RightHand  -0.169771 -0.806073 -4.22835
LeftUpLeg  -9.69205 14.011 -0.555558
LeftLeg  23.8073 47.8614 12.5608
LeftFoot  -8.34689 -0.157348 7.93214
LeftToes  -6.27559e-011 -2.10356e-011 8.24929e-012
325
root  4.35746 38.3309 26.0829 170.388 3.97766 -176.61
RightUpLeg  13.2764 -14.6549 -20.0747
RightLeg  44.3368 2.42137 2.25844
RightFoot  12.4823 -2.30163 11.3706
RightToes  -1.74623e-010 0 -2.59999e-017
Spine  0.669218 3.8769 0.461957
Spine1  17.585 2.76014 0.00668421
HEad  -1.51295 16.696 -7.85709
LeftShoulder1  2.17261 -3.72753 -23.8111
LeftArm  24.0562 1.13098 -45.5626
LeftForeArm  46.9324 -74.5685 -38.2939
LeftHand  -0.195847 3.70337 12.855
RightShoulder  3.1788 5.51435 29.3284
RightArm  13.4365 -1.03248 41.124
RightForeArm  164.367 66.9858 156.363
RightHand  -0.161441 -2.11101 -5.3728
LeftUpLeg  -12.7051 19.1356 1.97463
LeftLeg  24.148 52.4432 13.1272
LeftFoot  -6.62286 -0.414656 11.0965
LeftToes  -6.27559e-011 -2.10356e-011 8.24929e-012
326
root  4.95269 38.1769 27.4118 172.489 13.1172 -177.377
RightUpLeg  15.1681 -13.1286 -19.8016
RightLeg  35.9286 3.08737 2.1473
RightFoot  1.62182 -1.95927 17.6111
RightToes  -1.74623e-010 0 -2.59999e-017
Spine  0.0761965 3.83907 -0.998939
Spine1  18.5749 2.43557 2.05386
HEad  -6.56246 23.3115 -11.5416
LeftShoulder1  2.24003 -3.85251 -24.2401
LeftArm  21.0449 4.50103 -40.9476
LeftForeArm  47.0969 -74.7042 -38.7551
LeftHand  -0.0960856 4.70584 14.1421
RightShoulder  3.26087 5.51044 30.2775
RightArm  19.7572 12.1736 44.3026
RightForeArm  159.693 67.7123 154.954
RightHand  -0.185198 -1.68057 -5.61828
LeftUpLeg  -15.5306 28.3127 3.70869
LeftLeg  22.2506 50.6684 10.574
LeftFoot  -4.20694 -0.666824 11.0826
LeftToes  -6.27559e-011 -2.10356e-011 8.24929e-012
327
root  5.43072 37.836 28.9362 174.632 19.3893 -177.213
RightUpLeg  16.5545 -16.6512 -20.0939
RightLeg  27.2952 7.25716 3.78257
RightFoot  -9.82761 -0.340908 20.9524
RightToes  -1.74623e-010 0 -2.59999e-017
Spine  1.49141 2.86411 -0.112908
Spine1  17.0838 1.96158 1.40415
HEad  -11.0345 28.5459 -15.1772
LeftShoulder1  2.20443 -3.90305 -23.5152
LeftArm  19.3091 6.67214 -38.1573
LeftForeArm  41.1602 -72.0311 -31.6786
LeftHand  -0.116272 4.5594 14.8154
RightShoulder  3.01752 5.27429 28.4275
RightArm  24.256 18.2182 52.5955
RightForeArm  156.869 68.6995 153.41
RightHand  -0.219434 -1.05634 -5.80222
LeftUpLeg  -19.4552 32.276 4.51982
LeftLeg  21.6563 51.9823 10.7068
LeftFoot  -1.58981 -1.14639 13.4212
LeftToes  -6.27559e-011 -2.10356e-011 8.24929e-012
328
root  5.76279 37.4582 30.5685 176.792 23.8992 -175.698
RightUpLeg  15.1902 -18.5841 -17.0086
RightLeg  22.148 10.0247 4.25285
RightFoot  -17.2625 0.819077 17.9804
RightToes  -1.74623e-010 0 -2.59999e-017
Spine  3.8107 2.07759 3.3168
Spine1  15.9817 2.11516 -0.71317
HEad  -15.3315 31.2306 -18.1099
LeftShoulder1  2.15612 -3.87188 -22.9569
LeftArm  19.1533 4.09449 -37.3432
LeftForeArm  34.6708 -66.6728 -23.0336
LeftHand  -0.0773644 4.79636 12.3677
RightShoulder  2.82775 5.10134 26.8682
RightArm  25.4523 19.8454 56.7939
RightForeArm  153.782 67.1151 154.954
RightHand  -0.336108 -0.930697 -8.6948
LeftUpLeg  -24.2672 36.6263 5.08083
LeftLeg  20.9603 49.6965 11.0326
LeftFoot  2.12881 -1.61738 13.5177
LeftToes  -6.27559e-011 -2.10356e-011 8.24929e-012
329
root  5.92442 37.3044 32.0303 177.799 28.3793 -175.073
RightUpLeg  10.5422 -14.1299 -12.5997
RightLeg  22.7002 8.00896 3.44897
RightFoot  -20.6265 1.10126 15.1588
RightToes  -1.74623e-010 0 -2.59999e-017
Spine  5.50005 1.93691 5.20437
Spine1  17.067 2.64248 -2.09727
HEad  -19.35 32.8573 -20.8386
LeftShoulder1  2.19091 -3.87379 -23.4469
LeftArm  17.2979 0.442078 -38.4172
LeftForeArm  36.399 -60.7924 -16.7439
LeftHand  -0.00420321 5.68605 7.07973
RightShoulder  3.06039 5.36505 28.5624
RightArm  23.5916 20.6397 51.9743
RightForeArm  149.046 65.7328 155.936
RightHand  -0.487872 -0.256925 -11.1445
LeftUpLeg  -23.8825 35.135 9.23118
LeftLeg  17.8338 49.1517 7.51043
LeftFoot  8.19796 -1.61528 9.11492
LeftToes  -6.27559e-011 -2.10356e-011 8.24929e-012
330
root  5.95216 37.4704 33.0606 177.453 31.1452 -176.242
RightUpLeg  7.03723 -11.37 -11.738
RightLeg  24.5102 7.54467 3.53298
RightFoot  -20.839 1.06904 14.5033
RightToes  -1.74623e-010 0 -2.59999e-017
Spine  6.85543 1.09306 3.74016
Spine1  17.3481 1.71292 -2.10208
HEad  -21.9962 35.695 -23.1428
LeftShoulder1  2.22598 -3.79799 -24.2763
LeftArm  12.0487 2.26745 -40.7569
LeftForeArm  45.1968 -58.5613 -14.2638
LeftHand  0.00398026 6.22502 4.28284
RightShoulder  3.25983 5.56437 30.0476
RightArm  20.4378 18.0707 45.6021
RightForeArm  150.562 67.406 154.201
RightHand  -0.284365 -1.69907 -8.95454
LeftUpLeg  -21.6996 29.3557 11.7919
LeftLeg  14.0248 39.4023 2.85369
LeftFoot  15.3957 -1.04299 4.03563
LeftToes  -6.27559e-011 -2.10356e-011 8.24929e-012
331
root  5.91614 37.852 33.4829 177.213 31.9728 -177.328
RightUpLeg  6.6343 -11.2604 -12.1907
RightLeg  22.5543 8.03853 3.43162
RightFoot  -18.9714 0.81618 14.1007
RightToes  -1.74623e-010 0 -2.59999e-017
Spine  6.93204 -0.0623457 2.30903
Spine1  16.4251 0.082965 -0.78292
HEad  -22.1014 38.5084 -23.531
LeftShoulder1  2.24658 -3.74565 -24.8035
LeftArm  8.60717 7.31003 -43.0655
LeftForeArm  48.7192 -60.9606 -15.6144
LeftHand  0.0419498 6.88151 5.59625
RightShoulder  3.13613 5.3764 29.396
RightArm  16.6222 10.6861 41.8906
RightForeArm  161.695 68.6987 154.033
RightHand  -0.00227872 -7.26284 -2.30699
LeftUpLeg  -22.5739 29.6714 8.86155
LeftLeg  14.504 12.3397 1.26975
LeftFoot  17.7626 0.208856 -1.22903
LeftToes  -6.27559e-011 -2.10356e-011 8.24929e-012
332
root  5.84675 38.2884 33.548 177.479 33.8266 -178.367
RightUpLeg  6.78009 -8.65935 -12.2073
RightLeg  18.2769 6.76601 2.31483
RightFoot  -16.3881 0.520584 14.2797
RightToes  -1.74623e-010 0 -2.59999e-017
Spine  5.37664 0.00941469 2.63987
Spine1  16.1833 0.422124 -1.06573
HEad  -19.8413 39.4647 -21.3679
LeftShoulder1  2.24026 -3.77212 -24.5948
LeftArm  9.38834 11.0395 -44.4869
LeftForeArm  47.9756 -65.5034 -19.8017
LeftHand  0.0156753 6.47665 4.80677
RightShoulder  3.12478 5.31089 29.5357
RightArm  11.5329 1.38967 37.0297
RightForeArm  171.514 67.0376 157.126
RightHand  -0.572481 -14.3545 6.13882
LeftUpLeg  -21.8759 25.9409 9.06144
LeftLeg  18.1151 -0.218733 0.245466
LeftFoot  15.747 1.48397 -6.5594
LeftToes  -6.27559e-011 -2.10356e-011 8.24929e-012
